<?xml version="1.0" encoding="utf-8"?>
<!-- Generator: Adobe Illustrator 27.5.0, SVG Export Plug-In . SVG Version: 6.00 Build 0)  -->
<svg version="1.1" xmlns="http://www.w3.org/2000/svg" xmlns:xlink="http://www.w3.org/1999/xlink" x="0px" y="0px"
	 viewBox="0 0 500 500" style="enable-background:new 0 0 500 500;" xml:space="preserve">
<g id="Background_Simple">
	<g>
		<path style="fill:#92E3A9;" d="M117.183,42.446C95.689,48.074,75.08,61.693,57.474,80.745
			c-17.606,19.052-31.597,47.181-34.443,79.131c-2.93,32.899,6.037,65.668,17.573,94.147c11.536,28.478,17.94,53.499,27.457,83.559
			c8.373,26.447,12.981,55.733,24.263,79.709c15.363,32.649,41.69,51.462,68.355,57.016c26.665,5.554,61.722,0.296,87.897-9.045
			c54.537-19.462,106.859-51.916,154.968-94.537c21.78-19.295,43.259-41.468,57.26-72.754
			c15.824-35.358,20.574-81.062,12.658-121.796c-6.483-33.362-21.643-64.211-41.583-82.848
			C423.371,85.372,338.276-15.441,117.183,42.446z"/>
		<path style="opacity:0.7;fill:#FFFFFF;" d="M460.426,297.835c-14.003,31.286-35.483,53.456-57.258,72.753
			c-48.114,42.623-100.434,75.074-154.967,94.539c-20.363,7.259-46.089,12.058-69.06,11.209c-6.567-0.237-12.917-0.928-18.843-2.173
			c-26.664-5.55-52.992-24.363-68.349-57.012c-1.481-3.16-2.854-6.409-4.138-9.737c-8.424-21.904-12.858-47.008-20.126-69.968
			c-9.52-30.061-15.919-55.086-27.464-83.567c-11.535-28.471-20.502-61.248-17.569-94.144c2.844-31.947,16.838-60.073,34.446-79.133
			c17.598-19.05,38.208-32.668,59.708-38.297C337.9-15.585,422.988,85.234,431.501,93.184
			c19.939,18.635,35.098,49.486,41.586,82.856C480.997,216.767,476.247,262.471,460.426,297.835z"/>
	</g>
</g>
<g id="Plant">
	<g id="Frame">
	</g>
	<g>
		<g>
			<g>
				<g>
					<g>
						<path style="fill:#92E3A9;" d="M276.895,452.084c-0.145,0.228,1.064,1.436-3.03,1.497
							c-10.083,0.15-27.877-0.997-34.324-10.331c-9.206-13.327,12.787-11.548,10.835-18.815c-1.952-7.267-25.769-2-30.117-12.415
							c-4.348-10.415,12.809-7.954,12.15-13.271c-0.659-5.317-18.895,1.071-24.559-10.004c-5.664-11.075,9.955-4.819,7.518-9.41
							c-2.436-4.59-21.965-23.949-13.743-27.934c8.222-3.985,26.522,16.169,32.671,18.436c6.149,2.267,8.091-16.978,16.078-10.311
							c7.987,6.667,1.869,35.634,11.287,39.498c7.014,2.878,3.423-7.656,12.156-7.025
							C285.679,392.855,288.513,433.771,276.895,452.084z"/>
						<g style="opacity:0.1;">
							<path d="M276.895,452.084c-0.145,0.228,1.064,1.436-3.03,1.497c-10.083,0.15-27.877-0.997-34.324-10.331
								c-9.206-13.327,12.787-11.548,10.835-18.815c-1.952-7.267-25.769-2-30.117-12.415c-4.348-10.415,12.809-7.954,12.15-13.271
								c-0.659-5.317-18.895,1.071-24.559-10.004c-5.664-11.075,9.955-4.819,7.518-9.41c-2.436-4.59-21.965-23.949-13.743-27.934
								c8.222-3.985,26.522,16.169,32.671,18.436c6.149,2.267,8.091-16.978,16.078-10.311c7.987,6.667,1.869,35.634,11.287,39.498
								c7.014,2.878,3.423-7.656,12.156-7.025C285.679,392.855,288.513,433.771,276.895,452.084z"/>
						</g>
					</g>
					<g>
						<g>
							<g>
								<g>
									<g>
										<path style="fill:none;stroke:#263238;stroke-linecap:round;stroke-linejoin:round;stroke-miterlimit:10;" d="
											M277.126,453.711c-0.02-0.089-0.04-0.178-0.069-0.267c-0.059-0.197-0.118-0.395-0.178-0.593
											c-0.523-1.738-1.057-3.437-1.61-5.086c-1.185-3.506-2.429-6.834-3.743-9.984c-1.294-3.131-2.647-6.083-4.029-8.878
											c-0.573-1.155-1.146-2.291-1.738-3.387c-3.694-6.992-7.545-12.838-11.14-17.618c-2.498-3.308-4.869-6.093-6.982-8.394
											c-5.293-5.757-8.997-8.444-8.997-8.444"/>
										<path style="fill:none;stroke:#263238;stroke-linecap:round;stroke-linejoin:round;stroke-miterlimit:10;" d="
											M232.417,399.229c9.501-1.755,15.22,0.278,15.22,0.278"/>
										<path style="fill:none;stroke:#263238;stroke-linecap:round;stroke-linejoin:round;stroke-miterlimit:10;" d="
											M243.943,371.4c0,0,11.42,16.043,10.681,36.513"/>
										<path style="fill:none;stroke:#263238;stroke-linecap:round;stroke-linejoin:round;stroke-miterlimit:10;" d="
											M265.776,425.538c0,0-8.223-8.184-19.566-4.452"/>
										<path style="fill:none;stroke:#263238;stroke-linecap:round;stroke-linejoin:round;stroke-miterlimit:10;" d="
											M271.526,437.779c0,0,4.704-10.259,2.724-24.96"/>
									</g>
								</g>
							</g>
						</g>
					</g>
				</g>
				<g>
					<g>
						<g>
							<g>
								<path style="fill:none;stroke:#263238;stroke-linecap:round;stroke-linejoin:round;stroke-miterlimit:10;" d="
									M280.128,452.358c0.01-0.109,0.02-0.217,0.02-0.326c0.049-0.593,0.099-1.185,0.138-1.778
									c0.04-0.375,0.069-0.751,0.099-1.126c0.168-1.945,0.346-3.921,0.563-5.915c0.681-6.627,1.61-13.48,2.854-20.354
									c0-0.03,0.01-0.049,0.01-0.079c0.158-0.859,0.316-1.718,0.484-2.577c1.224-6.311,2.716-12.631,4.533-18.793
									c0-0.01,0.01-0.03,0.01-0.039c0.306-1.037,0.632-2.074,0.948-3.101c0.267-0.849,0.543-1.699,0.829-2.538
									c0.691-2.094,1.353-4.148,1.945-6.172v-0.01c1.294-4.345,2.38-8.542,3.279-12.542c0,0,0-0.01,0-0.02
									c0-0.01,0.01-0.03,0.01-0.04c0.563-2.479,1.057-4.879,1.471-7.219c1.866-10.201,2.548-19.159,2.617-26.644
									c0.039-3.881-0.089-7.357-0.306-10.419c-0.316-4.484-0.83-8.049-1.294-10.626c-0.059-0.316-0.109-0.622-0.158-0.918
									c-0.01-0.03-0.02-0.069-0.03-0.109c0-0.01,0-0.01,0-0.02c-0.01-0.01-0.01-0.03-0.01-0.039c-0.02-0.02-0.01-0.03,0-0.049"/>
							</g>
							<g>
								<g>
									<path style="fill:#FFFFFF;stroke:#263238;stroke-linecap:round;stroke-linejoin:round;stroke-miterlimit:10;" d="
										M298.179,321.126c-0.014-0.029-0.014-0.029-0.028-0.03c-0.014-0.029-0.014-0.029-0.028-0.03
										c-1.113-1.046-2.346-1.951-3.656-2.713c-1.439-0.809-2.983-1.462-4.592-1.886"/>
								</g>
							</g>
							<g>
								
									<line style="fill:none;stroke:#263238;stroke-linecap:round;stroke-linejoin:round;stroke-miterlimit:10;" x1="299.633" y1="332.667" x2="303.991" y2="328.945"/>
							</g>
							<g>
								<path style="fill:none;stroke:#263238;stroke-linecap:round;stroke-linejoin:round;stroke-miterlimit:10;" d="
									M292.56,389.56l0-0.015c-0.184-1.12-0.485-2.229-0.903-3.298c-0.577-1.566-1.388-3.038-2.406-4.37
									c-0.753-0.992-1.624-1.901-2.585-2.711"/>
							</g>
							<g>
								<path style="fill:none;stroke:#263238;stroke-linecap:round;stroke-linejoin:round;stroke-miterlimit:10;" d="
									M288.82,401.415c1.258-2.939,3.812-5.316,6.833-6.36"/>
							</g>
						</g>
						<path style="fill:none;stroke:#263238;stroke-linecap:round;stroke-linejoin:round;stroke-miterlimit:10;" d="
							M295.845,377.005c0,0,1.51-25.866-12.433-35.665"/>
						<g>
							<path style="fill:#92E3A9;" d="M295.949,436.509c0.134,6.319-15.538,13.796-15.538,13.796s-15.974-6.807-16.108-13.126
								c-0.134-6.319,6.778-14.621,15.516-14.806C288.559,422.189,295.816,430.19,295.949,436.509z"/>
							<path style="fill:#92E3A9;" d="M312.077,359.764c-1.838,6.362-14.29,10.556-14.29,10.556s-8.298-10.188-6.461-16.55
								c1.838-6.362,8.853-13.228,14.583-11.573C311.64,343.853,313.914,353.401,312.077,359.764z"/>
							<path style="fill:#92E3A9;" d="M279.005,379.349c1.6,1.261,3.249,2.549,5.199,3.14c1.95,0.591,4.296,0.333,5.676-1.165
								c1.711-1.857,1.353-4.823,0.378-7.152c-1.933-4.615-9.33-12.566-15.25-10.519
								C266.462,366.607,275.317,376.442,279.005,379.349z"/>
							<path style="fill:#92E3A9;" d="M295.964,391.46c-1.149,1.342-2.377,3.04-1.818,4.716c0.495,1.487,2.282,2.214,3.838,2.025
								c1.556-0.189,2.929-1.068,4.242-1.923c3.045-1.984,9.288-6.153,5.502-10.333C303.794,381.6,298.386,388.632,295.964,391.46z"
								/>
							<path style="fill:#92E3A9;" d="M272.692,332.868c-1.281,0.104-2.6,0.921-2.854,2.18c-0.298,1.473,0.892,2.804,2.055,3.755
								c2.896,2.37,11.621,8.792,13.782,2.905C287.717,336.147,276.641,332.548,272.692,332.868z"/>
							<g>
								<path style="fill:#92E3A9;" d="M289.677,313.792c-1.842,0.121-3.656-0.599-5.501-0.536
									c-1.845,0.063-3.932,1.485-3.575,3.297c0.33,1.674,2.381,2.291,4.08,2.448c2.899,0.267,5.833,0.151,8.702-0.346
									c0.666-0.115,1.392-0.291,1.788-0.838c0.777-1.075-0.365-2.58-1.621-3.005c-1.256-0.425-2.69-0.338-3.822-1.029
									L289.677,313.792z"/>
							</g>
							<g>
								<path style="fill:#92E3A9;" d="M307.262,326.959c1.843,0.107,3.651-0.626,5.497-0.578c1.846,0.049,3.944,1.455,3.601,3.269
									c-0.317,1.677-2.364,2.309-4.061,2.479c-2.897,0.29-5.832,0.195-8.704-0.28c-0.667-0.11-1.395-0.28-1.794-0.825
									c-0.785-1.069,0.345-2.582,1.598-3.017c1.253-0.435,2.688-0.358,3.814-1.058L307.262,326.959z"/>
							</g>
						</g>
					</g>
					<path style="fill:none;stroke:#263238;stroke-linecap:round;stroke-linejoin:round;stroke-miterlimit:10;" d="M298.183,321.346
						c0,0-0.63-7.372,1.165-7.922"/>
					<g>
						<path style="fill:#92E3A9;" d="M296.852,313.604c1.187-2.468,2.469-5.051,4.731-6.596c2.261-1.545,5.813-1.563,7.36,0.697
							c1.73,2.526-0.183,6.233-2.983,7.472c-2.801,1.238-6.026,0.747-9.045,0.233c-0.012-0.451-0.023-0.902-0.034-1.352
							L296.852,313.604z"/>
					</g>
				</g>
				<g>
					<g>
						<path style="fill:#92E3A9;" d="M288.923,440.545c8.139,1.57,23.401-3.597,30.155-10.026c6.854-6.524-9.582-4.587-6.958-10.188
							c2.624-5.601,21.142,2.083,26.157-5.721c5.015-7.804-9.224-8.277-7.927-12.486c1.297-4.208,15.55-0.838,21.726-8.987
							c6.175-8.149-7.364-5.331-4.733-8.696c2.632-3.365,21.218-16.227,15.136-20.633c-6.082-4.406-23.787,9.276-29.09,10.227
							c-5.302,0.951-4.522-10.484-11.943-6.235c-7.422,4.249-6.632,28.57-14.809,30.345c-6.09,1.321-1.807-9.01-8.829-7.432
							C285.518,393.475,285.618,439.907,288.923,440.545z"/>
						<g style="opacity:0.2;">
							<path style="fill:#FFFFFF;" d="M288.923,440.545c8.139,1.57,23.401-3.597,30.155-10.026
								c6.854-6.524-9.582-4.587-6.958-10.188c2.624-5.601,21.142,2.083,26.157-5.721c5.015-7.804-9.224-8.277-7.927-12.486
								c1.297-4.208,15.55-0.838,21.726-8.987c6.175-8.149-7.364-5.331-4.733-8.696c2.632-3.365,21.218-16.227,15.136-20.633
								c-6.082-4.406-23.787,9.276-29.09,10.227c-5.302,0.951-4.522-10.484-11.943-6.235c-7.422,4.249-6.632,28.57-14.809,30.345
								c-6.09,1.321-1.807-9.01-8.829-7.432C285.518,393.475,285.618,439.907,288.923,440.545z"/>
						</g>
					</g>
					<g>
						<path style="fill:none;stroke:#263238;stroke-linecap:round;stroke-linejoin:round;stroke-miterlimit:10;" d="
							M286.123,449.563c0.049-0.128,0.099-0.257,0.148-0.385c0.365-0.958,0.741-1.906,1.126-2.844
							c0.78-1.916,1.59-3.802,2.439-5.639c1.462-3.229,3.022-6.34,4.642-9.323c3.802-7.012,7.94-13.371,12.127-19.05
							c2.281-3.101,4.582-5.995,6.844-8.69c14.102-16.769,26.901-25.607,26.901-25.607"/>
						<path style="fill:none;stroke:#263238;stroke-linecap:round;stroke-linejoin:round;stroke-miterlimit:10;" d="
							M338.142,396.701c-9.209-1.781-17.066,0.333-17.671,0.446c-0.03,0.016-0.045,0.016-0.045,0.016"/>
						<path style="fill:none;stroke:#263238;stroke-linecap:round;stroke-linejoin:round;stroke-miterlimit:10;" d="
							M326.524,372.895c0,0-11.66,12.81-13.087,30.865"/>
						<path style="fill:none;stroke:#263238;stroke-linecap:round;stroke-linejoin:round;stroke-miterlimit:10;" d="
							M305.844,412.806c0,0,7.899-5.686,17.52-1.281"/>
						<path style="fill:none;stroke:#263238;stroke-linecap:round;stroke-linejoin:round;stroke-miterlimit:10;" d="
							M295.559,428.092c0,0-3.09-9.532,0.14-22.218"/>
					</g>
				</g>
			</g>
		</g>
	</g>
</g>
<g id="Graphics">
	<g>
		<g>
			<g>
				<path style="fill:none;stroke:#263238;stroke-linecap:round;stroke-linejoin:round;stroke-miterlimit:10;" d="M66.933,103.255
					c13.883,0,25.134,11.251,25.134,25.129c0,13.883-11.251,25.135-25.134,25.135"/>
				<path style="fill:none;stroke:#263238;stroke-linecap:round;stroke-linejoin:round;stroke-miterlimit:10;" d="M66.933,153.518
					c0,0,12.567-6.063,12.567-25.134c0-19.102-12.567-25.129-12.567-25.129"/>
				
					<line style="fill:none;stroke:#263238;stroke-linecap:round;stroke-linejoin:round;stroke-miterlimit:10;" x1="66.933" y1="153.518" x2="66.933" y2="103.255"/>
			</g>
			<g>
				<path style="fill:none;stroke:#263238;stroke-linecap:round;stroke-linejoin:round;stroke-miterlimit:10;" d="M67.064,103.255
					c-13.883,0-25.134,11.251-25.134,25.129c0,13.883,11.251,25.135,25.134,25.135"/>
				<path style="fill:none;stroke:#263238;stroke-linecap:round;stroke-linejoin:round;stroke-miterlimit:10;" d="M67.064,153.518
					c0,0-12.567-6.063-12.567-25.134c0-19.102,12.567-25.129,12.567-25.129"/>
				
					<line style="fill:none;stroke:#263238;stroke-linecap:round;stroke-linejoin:round;stroke-miterlimit:10;" x1="67.064" y1="153.518" x2="67.064" y2="103.255"/>
			</g>
			<g>
				
					<line style="fill:none;stroke:#263238;stroke-linecap:round;stroke-linejoin:round;stroke-miterlimit:10;" x1="66.933" y1="103.255" x2="67.062" y2="103.255"/>
				<polyline style="fill:none;stroke:#263238;stroke-linecap:round;stroke-linejoin:round;stroke-miterlimit:10;" points="
					43.358,120.011 55.401,120.011 66.933,120.011 67.062,120.011 78.594,120.011 90.637,120.011 				"/>
				<polyline style="fill:none;stroke:#263238;stroke-linecap:round;stroke-linejoin:round;stroke-miterlimit:10;" points="
					43.358,136.761 55.406,136.761 66.933,136.761 67.062,136.761 78.589,136.761 90.637,136.761 				"/>
				
					<line style="fill:none;stroke:#263238;stroke-linecap:round;stroke-linejoin:round;stroke-miterlimit:10;" x1="66.933" y1="153.518" x2="67.062" y2="153.518"/>
			</g>
		</g>
		<g>
			<polygon style="fill:none;stroke:#263238;stroke-linecap:round;stroke-linejoin:round;stroke-miterlimit:10;" points="
				465.431,220.412 470.471,226.537 466.753,229.672 461.626,223.446 455.659,228.204 448.893,203.499 471.561,215.524 			"/>
			<g>
				
					<line style="fill:none;stroke:#263238;stroke-linecap:round;stroke-linejoin:round;stroke-miterlimit:10;" x1="440.599" y1="194.9" x2="443.613" y2="197.914"/>
				
					<line style="fill:none;stroke:#263238;stroke-linecap:round;stroke-linejoin:round;stroke-miterlimit:10;" x1="437.321" y1="202.801" x2="441.575" y2="202.801"/>
				
					<line style="fill:none;stroke:#263238;stroke-linecap:round;stroke-linejoin:round;stroke-miterlimit:10;" x1="453.383" y1="197.919" x2="456.402" y2="194.9"/>
				
					<line style="fill:none;stroke:#263238;stroke-linecap:round;stroke-linejoin:round;stroke-miterlimit:10;" x1="440.599" y1="210.703" x2="443.602" y2="207.7"/>
				
					<line style="fill:none;stroke:#263238;stroke-linecap:round;stroke-linejoin:round;stroke-miterlimit:10;" x1="448.495" y1="195.892" x2="448.495" y2="191.627"/>
			</g>
		</g>
		<g>
			<g>
				<g>
					<path style="fill:#263238;" d="M359.385,317.976c0.894,0,1.77,0.123,2.612,0.367c0.375,0.106,0.776,0.253,1.194,0.437
						c1.358,0.596,2.576,1.531,3.524,2.704c0.248,0.307,0.443,0.584,0.619,0.882c0.968,1.503,1.48,3.242,1.48,5.028
						c0,1.54-0.377,3.04-1.095,4.373c-0.671-0.035-1.327-0.228-1.911-0.555c0.686-1.149,1.056-2.472,1.056-3.818
						c0-1.764-0.629-3.468-1.753-4.776c-0.256-0.317-0.526-0.594-0.802-0.827c-1.215-1.089-2.793-1.742-4.447-1.841
						c-0.177-0.024-0.342-0.024-0.477-0.024h-10.448c-4.118,0-7.469,3.35-7.469,7.468c0,4.124,3.35,7.478,7.469,7.478h9.23
						c0.061,0.078,0.122,0.154,0.182,0.23c0.497,0.617,1.06,1.188,1.673,1.699c-0.212,0.014-0.424,0.022-0.637,0.022h-10.448
						c-5.194,0-9.419-4.23-9.419-9.429c0-5.193,4.225-9.419,9.419-9.419H359.385 M359.385,316.976h-10.448
						c-5.748,0-10.419,4.681-10.419,10.419c0,5.748,4.671,10.429,10.419,10.429h10.448c1.116,0,2.182-0.178,3.19-0.504
						c-1.323-0.701-2.508-1.679-3.447-2.844c-0.158-0.198-0.316-0.395-0.454-0.603h-9.737c-3.565,0-6.469-2.903-6.469-6.478
						c0-3.565,2.903-6.468,6.469-6.468h10.448c0.128,0,0.257,0,0.375,0.02c1.481,0.079,2.834,0.652,3.881,1.59
						c0.257,0.217,0.484,0.454,0.691,0.711c0.958,1.116,1.531,2.568,1.531,4.148c0,1.541-0.543,2.953-1.442,4.059
						c0.909,0.79,2.064,1.254,3.259,1.313h0.059l0.049,0.01c0.039,0.01,0.079,0.01,0.118,0.01h0.375
						c0.978-1.57,1.531-3.427,1.531-5.392c0-2.044-0.602-3.96-1.639-5.57c-0.198-0.336-0.435-0.662-0.681-0.968
						c-1.037-1.284-2.37-2.321-3.901-2.992c-0.425-0.188-0.869-0.355-1.323-0.484C361.35,317.114,360.382,316.976,359.385,316.976
						L359.385,316.976z"/>
				</g>
			</g>
			<g>
				<g>
					<path style="fill:#263238;" d="M378.454,317.887c5.194,0,9.419,4.225,9.419,9.419c0,5.194-4.225,9.419-9.419,9.419h-10.448
						c-0.908,0-1.785-0.125-2.622-0.377c-0.385-0.109-0.768-0.248-1.174-0.427c-1.376-0.604-2.598-1.535-3.534-2.694
						c-0.239-0.296-0.447-0.587-0.629-0.882c-0.962-1.493-1.47-3.235-1.47-5.038c0-1.54,0.377-3.04,1.095-4.372h0.009
						c0.69,0.042,1.337,0.232,1.907,0.556c-0.689,1.149-1.061,2.472-1.061,3.816c0,1.781,0.61,3.437,1.765,4.79
						c0.215,0.276,0.476,0.548,0.797,0.831c1.23,1.079,2.805,1.726,4.439,1.824c0.177,0.024,0.342,0.024,0.477,0.024h10.448
						c4.118,0,7.469-3.35,7.469-7.469c0-4.118-3.35-7.468-7.469-7.468h-9.233c-0.057-0.075-0.117-0.151-0.18-0.23
						c-0.495-0.614-1.057-1.184-1.669-1.698c0.211-0.014,0.423-0.022,0.634-0.022H378.454 M378.454,316.887h-10.448
						c-1.106,0-2.173,0.178-3.17,0.494c1.304,0.711,2.479,1.679,3.427,2.854c0.158,0.198,0.306,0.395,0.444,0.602h9.747
						c3.565,0,6.469,2.903,6.469,6.468c0,3.565-2.903,6.469-6.469,6.469h-10.448c-0.128,0-0.257,0-0.375-0.02
						c-1.481-0.079-2.834-0.662-3.881-1.58c-0.247-0.217-0.484-0.454-0.681-0.711c-0.968-1.126-1.541-2.568-1.541-4.158
						c0-1.531,0.543-2.943,1.442-4.049c-0.899-0.8-2.024-1.254-3.259-1.323h-0.059l-0.049-0.01c-0.039-0.01-0.079-0.01-0.118-0.01
						h-0.375c-0.978,1.57-1.531,3.427-1.531,5.392c0,2.054,0.593,3.97,1.629,5.58c0.208,0.336,0.445,0.662,0.691,0.968
						c1.037,1.284,2.38,2.311,3.911,2.982c0.425,0.188,0.849,0.346,1.304,0.474c0.918,0.276,1.886,0.415,2.894,0.415h10.448
						c5.748,0,10.419-4.671,10.419-10.419C388.873,321.558,384.202,316.887,378.454,316.887L378.454,316.887z"/>
				</g>
			</g>
		</g>
	</g>
</g>
<g id="Web_Page">
	<g>
		<g>
			<g>
				<g>
					<g>
						<rect x="97.271" y="50.34" style="fill:#999999;stroke:#263238;stroke-miterlimit:10;" width="334.447" height="249.76"/>
					</g>
				</g>
				<rect x="100.858" y="68.319" style="fill:#FFFFFF;" width="327.312" height="228.112"/>
				<g>
					<rect x="97.166" y="50.34" style="fill:#263238;" width="334.447" height="14.048"/>
					<g>
						<circle style="fill:#FFFFFF;" cx="109.479" cy="57.239" r="4.202"/>
						<circle style="fill:#FFFFFF;" cx="122.362" cy="57.239" r="4.202"/>
						<path style="fill:#FFFFFF;" d="M139.448,57.239c0,2.321-1.881,4.202-4.202,4.202c-2.321,0-4.202-1.881-4.202-4.202
							c0-2.321,1.881-4.202,4.202-4.202C137.567,53.037,139.448,54.918,139.448,57.239z"/>
					</g>
				</g>
			</g>
			<g>
				<g>
					<g>
						<path style="fill:#92E3A9;stroke:#263238;stroke-miterlimit:10;" d="M303.141,237.131h-73.213
							c-5.909,0-10.699-4.79-10.699-10.699v-15.536c0-5.909,4.79-10.699,10.699-10.699h73.213c5.909,0,10.699,4.79,10.699,10.699
							v15.536C313.841,232.341,309.051,237.131,303.141,237.131z"/>
					</g>
					<path style="fill:none;stroke:#263238;stroke-linecap:round;stroke-linejoin:round;stroke-miterlimit:10;" d="M228.634,240.311
						h76.528c6.599,0,11.949-5.35,11.949-11.949v-18.054"/>
				</g>
				<g>
					<path style="fill:#263238;" d="M247.403,221.112c0,0.863-0.213,1.526-0.64,1.988c-0.426,0.462-1.046,0.693-1.858,0.693
						c-0.813,0-1.432-0.231-1.859-0.693c-0.427-0.462-0.64-1.125-0.64-1.988v-5.546c0-0.863,0.213-1.526,0.64-1.988
						c0.427-0.462,1.046-0.693,1.859-0.693c0.813,0,1.432,0.231,1.858,0.693c0.427,0.462,0.64,1.125,0.64,1.988v1.036h-1.585v-1.143
						c0-0.701-0.289-1.051-0.869-1.051c-0.579,0-0.868,0.351-0.868,1.051v5.759c0,0.691,0.29,1.036,0.868,1.036
						c0.579,0,0.869-0.345,0.869-1.036v-1.524h1.585V221.112z"/>
					<path style="fill:#263238;" d="M250.1,213.006v9.142h2.757v1.523h-4.434v-10.665H250.1z"/>
					<path style="fill:#263238;" d="M255.265,213.006v10.665h-1.676v-10.665H255.265z"/>
					<path style="fill:#263238;" d="M261.344,221.112c0,0.863-0.213,1.526-0.64,1.988c-0.427,0.462-1.047,0.693-1.859,0.693
						s-1.432-0.231-1.858-0.693c-0.427-0.462-0.64-1.125-0.64-1.988v-5.546c0-0.863,0.213-1.526,0.64-1.988
						c0.427-0.462,1.046-0.693,1.858-0.693s1.433,0.231,1.859,0.693c0.427,0.462,0.64,1.125,0.64,1.988v1.036h-1.585v-1.143
						c0-0.701-0.289-1.051-0.868-1.051s-0.868,0.351-0.868,1.051v5.759c0,0.691,0.289,1.036,0.868,1.036s0.868-0.345,0.868-1.036
						v-1.524h1.585V221.112z"/>
					<path style="fill:#263238;" d="M264.04,220.395v3.276h-1.676v-10.665h1.676v4.647l2.194-4.647h1.676l-2.331,4.753l2.331,5.912
						h-1.722l-1.63-4.251L264.04,220.395z"/>
					<path style="fill:#263238;" d="M271.033,223.671v-10.665h1.676v4.571h1.904v-4.571h1.707v10.665h-1.707v-4.571h-1.904v4.571
						H271.033z"/>
					<path style="fill:#263238;" d="M281.516,217.501v1.523h-2.301v3.124h2.896v1.523h-4.571v-10.665h4.571v1.523h-2.896v2.971
						H281.516z"/>
					<path style="fill:#263238;" d="M286.528,223.184c-0.021-0.152-0.031-0.426-0.031-0.822v-1.676c0-0.487-0.086-0.836-0.259-1.044
						c-0.173-0.208-0.452-0.313-0.838-0.313h-0.579v4.342h-1.676v-10.665h2.529c0.863,0,1.493,0.201,1.89,0.602
						c0.396,0.401,0.594,1.019,0.594,1.851v0.838c0,1.097-0.365,1.818-1.097,2.163c0.396,0.163,0.68,0.435,0.853,0.815
						c0.173,0.381,0.26,0.866,0.26,1.455v1.645c0,0.305,0.01,0.551,0.03,0.739c0.02,0.188,0.07,0.374,0.152,0.556h-1.707
						C286.589,223.499,286.548,223.336,286.528,223.184z M284.821,217.806h0.655c0.335,0,0.587-0.087,0.754-0.259
						c0.168-0.172,0.252-0.462,0.252-0.868v-1.051c0-0.386-0.068-0.666-0.206-0.838c-0.137-0.172-0.353-0.259-0.647-0.259h-0.808
						V217.806z"/>
					<path style="fill:#263238;" d="M293.247,217.501v1.523h-2.301v3.124h2.896v1.523h-4.571v-10.665h4.571v1.523h-2.896v2.971
						H293.247z"/>
				</g>
			</g>
		</g>
		<rect x="220.229" y="117.951" style="fill:#999999;" width="148.061" height="14.08"/>
		<rect x="220.229" y="140.833" style="fill:#999999;" width="98.399" height="14.08"/>
		<g>
			<line style="fill:#999999;stroke:#263238;stroke-miterlimit:10;" x1="220.229" y1="167.231" x2="318.628" y2="167.231"/>
			<line style="fill:#999999;stroke:#263238;stroke-miterlimit:10;" x1="220.229" y1="176.182" x2="327.815" y2="176.182"/>
			<line style="fill:#999999;stroke:#263238;stroke-miterlimit:10;" x1="220.229" y1="185.134" x2="337.003" y2="185.134"/>
		</g>
		<g>
			<line style="fill:#999999;stroke:#263238;stroke-miterlimit:10;" x1="402.487" y1="75.759" x2="421.089" y2="75.759"/>
			<line style="fill:#999999;stroke:#263238;stroke-miterlimit:10;" x1="402.487" y1="80.805" x2="421.089" y2="80.805"/>
			<line style="fill:#999999;stroke:#263238;stroke-miterlimit:10;" x1="402.487" y1="85.85" x2="421.089" y2="85.85"/>
		</g>
		<g>
			<rect x="138.493" y="75.173" style="fill:#999999;" width="30.656" height="5.632"/>
			<rect x="179.078" y="75.173" style="fill:#999999;" width="30.656" height="5.632"/>
			<rect x="219.663" y="75.173" style="fill:#999999;" width="30.656" height="5.632"/>
			<rect x="260.247" y="75.173" style="fill:#999999;" width="30.656" height="5.632"/>
		</g>
		
			<rect x="106.981" y="75.173" style="fill:#FFFFFF;stroke:#263238;stroke-linecap:round;stroke-linejoin:round;" width="22.36" height="22.36"/>
	</g>
</g>
<g id="Character">
	<g>
		<g>
			
				<line style="fill:none;stroke:#FFFFFF;stroke-width:2;stroke-linecap:round;stroke-linejoin:round;stroke-miterlimit:10;" x1="238.54" y1="225.74" x2="235.659" y2="228.689"/>
			
				<line style="fill:none;stroke:#FFFFFF;stroke-width:2;stroke-linecap:round;stroke-linejoin:round;stroke-miterlimit:10;" x1="231.124" y1="222.915" x2="231.071" y2="226.932"/>
			
				<line style="fill:none;stroke:#FFFFFF;stroke-width:2;stroke-linecap:round;stroke-linejoin:round;stroke-miterlimit:10;" x1="223.626" y1="226.28" x2="226.424" y2="229.014"/>
			
				<line style="fill:none;stroke:#FFFFFF;stroke-width:2;stroke-linecap:round;stroke-linejoin:round;stroke-miterlimit:10;" x1="237.507" y1="233.23" x2="241.532" y2="233.085"/>
		</g>
		<g>
			<g>
				<g>
					<path style="fill:#263238;" d="M138.094,210.394c1.257,9.174,0.327,18.641-2.691,27.395c-0.742,2.152-1.988,4.576-4.243,4.887
						c0.116,3.112-3.294,6.696-6.378,7.127c-1.594,0.223-2.915,2.302-4.007,3.484c-2.08,2.25-5.71,2.882-8.427,1.467
						c-2.718-1.415-4.281-4.752-3.629-7.746c0.633-2.907,2.174-5.143,4.149-7.368c3.935-4.431,6.468-11.483,8.718-16.964
						c0.78,0.143,1.266-14.479,1.765-20.436c2.007-1.354,10.344-0.329,12.387,0.968
						C137.784,204.505,137.765,207.996,138.094,210.394z"/>
					<g>
						<defs>
							<path id="XMLID_2_" d="M91.703,246.505c-0.387,0.972-1.205,2.174-3.686,2.589c4.973,7.123,19.241,13.468,29.444,12.181
								c5.642-1.014,5.765-2.517,4.205-3.861c-3.079-2.652-5.567-8.275-5.661-12.337l-0.097-4.193l-22.639-11.8
								c0,0-1.125,11.953-1.166,15.294C92.093,245.105,91.972,245.829,91.703,246.505z"/>
						</defs>
						<use xlink:href="#XMLID_2_"  style="overflow:visible;fill:#999999;"/>
						<clipPath id="XMLID_00000060720839214802833400000000109807054253749131_">
							<use xlink:href="#XMLID_2_"  style="overflow:visible;"/>
						</clipPath>
						
							<path style="opacity:0.3;clip-path:url(#XMLID_00000060720839214802833400000000109807054253749131_);enable-background:new    ;" d="
							M90.708,243.728c-0.192,1.454-0.599,3.168-1.972,3.683c-0.674,0.253-1.557,0.206-1.943,0.815
							c-0.436,0.689,0.162,1.55,0.725,2.14c2.868,3.006,5.762,6.035,9.179,8.396c3.418,2.362,7.441,4.039,11.595,4.007
							c-3.241-7.008-0.525-16.218,5.999-20.347c1.583-1.002,3.632-2.289,3.247-4.123c-0.276-1.314-1.701-1.992-2.953-2.476
							c-3.411-1.319-6.822-2.638-10.233-3.957c-3.165-1.224-6.846-3.393-10.184-3.935c-3.057-0.496-2.206,3.316-2.385,5.585
							C91.514,236.928,91.156,240.334,90.708,243.728z"/>
						<use xlink:href="#XMLID_2_"  style="overflow:visible;fill:none;stroke:#263238;stroke-miterlimit:10;"/>
					</g>
					<path style="fill:#263238;stroke:#263238;stroke-linecap:round;stroke-linejoin:round;" d="M107.751,242.806
						c2.287,0.725,8.263,2.517,8.263,2.518c0,0,0.001,0,0.001-0.001l-0.108-4.438c0,0,0,0,0-0.001l-22.638-11.8
						c0,0-0.001,0-0.001,0.001l0,0C94.357,236.229,100.862,240.623,107.751,242.806z"/>
					<path style="fill:#999999;" d="M99.612,178.866c-6.84,4.41-12.604,9.056-15.141,23.399
						c-2.537,14.343,3.477,24.164,3.477,24.164c1.443,2.432,3.155,4.695,5.105,6.744c3.891,4.351,20.796,9.934,25.741,9.609
						c4.945-0.325,11.349-8.834,13.777-21.013s0.074-15.036-3.383-30.622c-3.457-15.586-11.85-17.103-11.85-17.103
						S108.95,172.826,99.612,178.866z"/>
					<g>
						<defs>
							<path id="SVGID_1_" d="M99.612,178.866c-6.84,4.41-12.604,9.056-15.141,23.399c-2.537,14.343,3.477,24.164,3.477,24.164
								c1.443,2.432,3.155,4.695,5.105,6.744c3.891,4.351,20.796,9.934,25.741,9.609c4.945-0.325,11.349-8.834,13.777-21.013
								s0.074-15.036-3.383-30.622c-3.457-15.586-11.85-17.103-11.85-17.103S108.95,172.826,99.612,178.866z"/>
						</defs>
						<clipPath id="SVGID_00000064332981663794801440000002717804402772940710_">
							<use xlink:href="#SVGID_1_"  style="overflow:visible;"/>
						</clipPath>
						<g style="clip-path:url(#SVGID_00000064332981663794801440000002717804402772940710_);">
							<path style="opacity:0.3;enable-background:new    ;" d="M84.402,202.275c-2.537,14.343,3.477,24.164,3.477,24.164
								c1.443,2.433,3.155,4.695,5.105,6.744c3.891,4.351,20.855,9.925,25.741,9.609c1.75-0.117,3.709-1.295,5.6-3.302
								c-3.453,0.59-6.994,0.422-10.375-0.495c-7.829-2.142-16.527-9.976-18.863-22.536c-1.873-10.114-5.392-22.114-6.69-26.431
								C86.419,193.87,85.07,198.005,84.402,202.275z"/>
						</g>
					</g>
					<path style="fill:none;stroke:#263238;stroke-linecap:round;stroke-linejoin:round;" d="M99.612,178.866
						c-6.84,4.41-12.604,9.056-15.141,23.399c-2.537,14.343,3.477,24.164,3.477,24.164c1.443,2.432,3.155,4.695,5.105,6.744
						c3.891,4.351,20.796,9.934,25.741,9.609c4.945-0.325,11.349-8.834,13.777-21.013s0.074-15.036-3.383-30.622
						c-3.457-15.586-11.85-17.103-11.85-17.103S108.95,172.826,99.612,178.866z"/>
					<path style="fill:#263238;" d="M122.027,165.695c5.701,2.363,11.03,5.621,15.736,9.613c0.973,0.825,0.821,2.423-0.349,2.93
						c-1.544,0.669-3.335,0.786-4.932,0.248c8.21,6.182,15.205,13.97,20.487,22.785c0.95,1.586-0.263,3.663-2.106,3.518
						c-1.069-0.084-2.123-0.348-3.101-0.789c4.017,3.34,6.202,6.05,4.971,7.768c-1.608,0.305-3.638-3.743-5.128-4.35
						c2.66,4.021,4.227,8.746,4.568,13.553c0.189,2.667-3.011,4.187-5.025,2.429l-0.256-0.223l0.673,7.173
						c0.235,2.511-3.38,3.204-4.077,0.781c-0.022-0.078-0.043-0.158-0.061-0.237c0.985,2.212,1.995,4.551,1.395,7.005
						c-0.392,1.604-1.602,2.964-3.238,3.183c-2.62,0.35-4.438-2.34-5.466-4.723c0,0,1.393-33.081-14.842-54.31
						c-9.109-11.912-13.445-13.407-13.445-13.407C108.038,161.999,118.752,164.338,122.027,165.695z"/>
					<path style="fill:#263238;" d="M113.463,167.245c-4.42-2.751-10.442-4.954-15.282-6.858c-10.241-4.03-22.641-2.55-31.151,4.52
						c-1.111,0.923-0.707,2.723,0.69,3.091l2.728,0.718c-4.013,0.615-7.776,2.619-10.61,5.519c-1.341,1.373,0.001,3.646,1.857,3.156
						c0.017-0.005,0.034-0.009,0.051-0.014c-7.983,4.693-13.965,12.602-16.515,21.488c-0.81,2.823,2.326,5.23,4.78,3.616
						c1.235-0.812,2.376-1.767,3.389-2.844c-3.524,4.682-6.27,9.947-8.092,15.517c-0.468,1.431-0.85,3.121,0.365,4.267
						c0.84,0.793,2.11,0.902,3.183,0.474c1.925-0.768,2.88-2.636,3.748-4.403c-1.11,2.719-1.703,5.646-1.756,8.582
						c-0.026,1.459,1.823,2.103,2.686,0.927l1.177-1.603c-2.546,5.731-1.722,12.778,1.912,17.861
						c0.636,0.889,1.969,0.848,2.515-0.099l3.123-5.418c-0.936,2.26-1.865,4.879-0.754,7.059c0.999,1.962,4.44,2.217,5.262,0.471
						c-0.216,1.796,1.913,3.542,3.865,3.351c2.187-0.215,3.912-1.884,5.446-3.458c11.184,7.956,16.972,6.403,18.3-5.54
						c0.352-3.162-2.376-4.181-6.432-11.197c0,0-4.756-9.175-2.242-14.403c0.933,1.128,1.716,2.38,2.304,3.721l3.432,5.314
						c0,0-1.084-0.747-0.399-6.729c0.379-3.305,1.565-9.068,3.167-14.272c7.713-25.052,32.425-14.839,31.996-11.801
						C126.207,188.258,123.097,173.24,113.463,167.245z"/>
					<g>
						<path style="fill:none;stroke:#263238;stroke-linecap:round;stroke-linejoin:round;" d="M116.715,228.692
							c2.024,1.851,7.44,1.853,7.657-1.419c0,0-0.352-1.839-1.584-1.373"/>
						<path style="fill:none;stroke:#263238;stroke-linecap:round;stroke-linejoin:round;" d="M116.015,226.484
							c2.379,0.124,5.393,0.155,7.511-0.936c0.522-0.269,0.889-1.164,0.692-1.718c-0.197-0.554-0.821-0.919-1.4-0.82"/>
					</g>
					<path style="fill:none;stroke:#263238;stroke-linecap:round;stroke-linejoin:round;" d="M117.5,218.913
						c0,0,1.332,1.725,4.887-0.316c3.555-2.041,0.879-5.499-1.517-8.57c-1.423-1.917-1.88-4.384-1.24-6.684"/>
					<path style="fill:#263238;" d="M106.621,207.926c0.771-0.118,1.582,1.007,1.812,2.511c0.229,1.503-0.209,2.819-0.98,2.937
						c-0.771,0.118-1.582-1.007-1.812-2.511C105.408,209.34,105.85,208.044,106.621,207.926z"/>
					<path style="fill:#263238;" d="M124.896,206.874c0.23,1.504-0.209,2.819-0.98,2.937c-0.771,0.118-1.582-1.007-1.812-2.511
						c-0.229-1.504,0.21-2.819,0.98-2.937C123.855,204.246,124.666,205.37,124.896,206.874z"/>
					<path style="fill:none;stroke:#263238;stroke-linecap:round;stroke-linejoin:round;" d="M100.83,205.807
						c1.764-6.717,13.24-2.832,13.24-2.832"/>
					<path style="fill:none;stroke:#263238;stroke-linecap:round;stroke-linejoin:round;" d="M120.667,201.809
						c4.59-5.673,7.574-2.136,7.574-2.136"/>
					<path style="fill:#999999;" d="M89.62,224.885c0,0-3.284,2.439-6.648-1.343c-3.364-3.782-5.865-10.284-1.954-12.809
						c3.91-2.525,7.869,6.531,7.869,6.531L89.62,224.885z"/>
					<g>
						<defs>
							<path id="SVGID_00000026164658592384771930000008676302603605786790_" d="M89.62,224.885c0,0-3.284,2.439-6.648-1.343
								c-3.364-3.782-5.865-10.284-1.954-12.809c3.91-2.525,7.869,6.531,7.869,6.531"/>
						</defs>
						<clipPath id="SVGID_00000174593787538074088300000017324504957574647987_">
							<use xlink:href="#SVGID_00000026164658592384771930000008676302603605786790_"  style="overflow:visible;"/>
						</clipPath>
						<g style="clip-path:url(#SVGID_00000174593787538074088300000017324504957574647987_);">
							<path style="opacity:0.3;enable-background:new    ;" d="M89.62,224.885c0,0-3.284,2.439-6.648-1.343
								c-3.364-3.782-5.865-10.284-1.954-12.809c3.91-2.525,7.869,6.531,7.869,6.531"/>
						</g>
					</g>
					<path style="fill:none;stroke:#263238;stroke-linecap:round;stroke-linejoin:round;" d="M89.62,224.885
						c0,0-3.284,2.439-6.648-1.343c-3.364-3.782-5.865-10.284-1.954-12.809c3.91-2.525,7.869,6.531,7.869,6.531"/>
				</g>
				<g>
					<path style="fill:#FFFFFF;stroke:#263238;stroke-linecap:round;stroke-linejoin:round;" d="M134.051,265.48
						c-16.422-5.088-35.553-10.853-46.895-16.825c0,0,2.38-6.264,4.587-7.251c0,0,5.404-0.193,14.143,3.249
						C117.5,249.227,133.702,264.806,134.051,265.48z"/>
				</g>
				<g>
					<defs>
						<path id="XMLID_1_" d="M105.595,365.298c-2.545,3.305-3.893,6.779-6.428,10.085c-11.239-4.842-26.736-19.849-39.309-28.584
							c-10.712-7.442-6.191-18.882-6.19-18.902c0.439-1.99,16.296-61.051,17.445-63.756c3.036-7.133,7.943-16.517,15.482-14.681
							c22.236,5.422-9.758,83.265-9.758,83.265C78.142,333.94,96.568,355.14,105.595,365.298z"/>
					</defs>
					<use xlink:href="#XMLID_1_"  style="overflow:visible;fill:#92E3A9;"/>
					<clipPath id="XMLID_00000044155447540637211890000013260493298312405124_">
						<use xlink:href="#XMLID_1_"  style="overflow:visible;"/>
					</clipPath>
					
						<path style="opacity:0.3;clip-path:url(#XMLID_00000044155447540637211890000013260493298312405124_);enable-background:new    ;" d="
						M71.996,262.857c0.065,12.195,1.738,24.38,4.961,36.142c-1.424-1.72-2.847-3.44-4.271-5.159
						c1.335,7.546,2.675,15.203,1.95,22.831c-0.219,2.302-0.685,4.715-2.211,6.453c-1.526,1.738-4.417,2.457-6.184,0.965
						c1.89-0.333,2.99,2.346,2.89,4.262c-0.1,1.917-2.235,3.441-4.08,2.912c-0.608,1.203,1.067,2.358,2.414,2.314
						c1.347-0.043,2.817-0.559,3.964,0.149c0.94,0.58,1.273,1.762,1.552,2.831c3.236,12.401,9.514,23.996,18.128,33.485
						c-12.971-9.07-26.514-18.565-38.076-29.374c-4.21-3.936-8.677-9.048-7.525-14.695C50.1,303.481,62.103,283.572,71.996,262.857z
						"/>
					
						<use xlink:href="#XMLID_1_"  style="overflow:visible;fill:none;stroke:#263238;stroke-linecap:round;stroke-linejoin:round;"/>
				</g>
				<path style="fill:#263238;" d="M179.141,476.336c-6.567-0.237-12.917-0.928-18.843-2.173
					c-26.664-5.55-52.992-24.363-68.349-57.012c-1.481-3.16-2.854-6.409-4.138-9.737c0.021-0.161,0.024-0.354,0.014-0.579
					c-0.402-8.799,1.001-17.592,3.699-25.977l0,0l73.243-2.834l0,0c0.459,25.902,3.624,51.684,9.443,76.928L179.141,476.336z"/>
				<g>
					<defs>
						<path id="XMLID_3_" d="M141.456,271.136c10.21,10.003,18.214,27.727,16.913,41.962c-1.768,19.354-0.189,7.768,2.729,26.983
							c3.82,25.158,4.36,54.973,4.36,54.973c-26.972,7.161-60.101,2.588-75.347-11.706c-0.541-25.367,10.914-36.669,1.002-60.026
							c-5.958-14.04-15.888-29.773-17.764-44.909c-1.379-11.131-2.644-19.76,3.594-25.592c2.738-2.559,6.401-3.875,10.146-4.02
							C120.693,247.503,141.456,271.136,141.456,271.136z"/>
					</defs>
					<use xlink:href="#XMLID_3_"  style="overflow:visible;fill:#92E3A9;"/>
					<clipPath id="XMLID_00000181089387366775508590000002523906851600705408_">
						<use xlink:href="#XMLID_3_"  style="overflow:visible;"/>
					</clipPath>
					
						<path style="opacity:0.3;clip-path:url(#XMLID_00000181089387366775508590000002523906851600705408_);enable-background:new    ;" d="
						M109.479,277.568c5.129,10.458,7.899,18.134,11.13,29.325c-6.661-3.878-13.323-7.756-19.985-11.634
						c6.545,10.281,15.187,19.221,25.241,26.109c-1.671,0.445-3.519,2.496-3.897,4.183c-0.379,1.687-0.113,3.447,0.22,5.144
						c2.235,11.422,7.463,22.245,15.021,31.096c-5.823-2.489-10.99-6.357-15.32-10.977c-6.915-7.377-13.825-14.767-19.785-22.934
						c-0.792-1.085-2.903-2.402-4.215-2.113c3.61,18.663,16.352,35.335,33.412,43.718c-3.11,1.726-7.67,2.691-10.776,0.958
						c-3.106-1.733-5.523-4.45-7.877-7.116c-3.682-4.169-7.365-8.339-11.047-12.509c2.493,16.231,13.19,31.905,28.315,38.3
						c4.453,1.883,8.852,5.189,11.662,9.123c-18.175,3.05-36.967-3.519-51.466-14.895c-0.627-13.028,4.597-25.051,5.048-42.008
						c0.264-9.94-7.869-27.749-13.77-38.576c-5.137-9.425-8.061-20.783-9.169-31.459c-0.303-2.922-1.188-9.863,4.724-18.484
						C78.605,250.4,91.743,241.404,109.479,277.568z"/>
					
						<use xlink:href="#XMLID_3_"  style="overflow:visible;fill:none;stroke:#263238;stroke-linecap:round;stroke-linejoin:round;"/>
				</g>
				<path style="fill:#999999;stroke:#263238;stroke-miterlimit:10;" d="M228.991,272.184c-0.114,0.075-0.229,0.147-0.345,0.217
					c-2.073,1.242-3.743,3.056-4.916,5.168l0,0l-14.385-7.754c0.416-1.792,2.058-3.718,1.128-5.463
					c-1.091-2.048-1.824-4.28-1.716-6.599c0.057-1.237,0.183-2.493,0.335-3.755c0.403-3.342,0.115-6.705-0.447-10.023
					c-0.082-0.482-0.29-1.522-0.163-2.039c0.203-0.824,1.018-1.46,1.849-1.633c1.415-0.294,2.644,1.065,3.229,2.225
					c0.533,1.057,0.688,2.521,0.999,3.662c0.508,1.861,0.406,4.183,1.492,5.706c0.587,0.824,2.478,0.702,2.957-0.188
					c1.77-3.283,9.561-18.16,9.561-18.16c0.387-0.763,1.025-1.398,1.836-1.673c2.628-0.888,4.296,1.915,2.995,4.328l-8.374,15.342
					l4.463-8.18c0,0,1.035-1.379,2.838,0.042c1.045,0.824,1.511,1.674,0.786,3.018c-0.838,1.555-3.988,7.399-3.988,7.399l3.45-6.307
					c0,0,1.326-1.013,2.761,0.176c1.435,1.189,1.117,2.678,1.117,2.678l-3.815,7.077l2.254-4.182c0,0,0.949-0.734,2.611,0.162
					c1.662,0.896,1.302,2.847,1.211,3.144c-0.071,0.232-4.482,8.36-6.403,11.895C231.507,269.947,230.4,271.259,228.991,272.184z"/>
				<path style="fill:#FFFFFF;stroke:#263238;stroke-linecap:round;stroke-linejoin:round;" d="M205.475,272.752l2.781-8.109
					c0,0,13.088-0.538,18.771,9.536l-8.33,9.004C218.697,283.184,218.895,275.937,205.475,272.752z"/>
				<path style="fill:#263238;" d="M114.922,285.834c0,0,3.239,22.161,24.527,43.649c11.687,11.797,21.65,10.599,21.65,10.599
					S132.573,322.504,114.922,285.834z"/>
				<g>
					<defs>
						<path id="XMLID_4_" d="M220.813,280.896c-10.074,19.433-19.071,34.954-33.096,51.761c-2.943,3.526-6.133,6.988-10.192,9.138
							c-4.058,2.15-7.399,3.219-11.419,0.998c-19.522-10.786-35.945-27.11-46.848-46.567c-4.084-7.288-7.354-16.527-3.037-23.68
							c3.391-5.619,11.725-9.475,17.83-7.066c4.721,1.863,7.99,6.136,10.969,10.244c5.732,7.903,21.462,33.048,23.896,36.746
							c12.504-12.526,25.018-26.299,36.559-39.718C207.736,270.124,218.906,275.914,220.813,280.896z"/>
					</defs>
					<use xlink:href="#XMLID_4_"  style="overflow:visible;fill:#92E3A9;"/>
					<clipPath id="XMLID_00000085250555096895073200000005101209421625877183_">
						<use xlink:href="#XMLID_4_"  style="overflow:visible;"/>
					</clipPath>
					
						<path style="opacity:0.3;clip-path:url(#XMLID_00000085250555096895073200000005101209421625877183_);enable-background:new    ;" d="
						M180.195,340.115c3.678-2.021,6.454-5.805,7.911-9.741c-2.86,1.878-5.938,3.79-9.359,3.852s-7.527-3.108-7.328-6.524
						c0.582,0.212,0.496,1.196-0.067,1.455c-0.563,0.26-1.256-0.081-1.6-0.597c-0.344-0.516-0.424-1.158-0.495-1.774
						c-0.307-2.651-1.01-5.589-1.317-8.24c-1.365,3.744-1.346,2.746-2.711,6.49c-0.328,0.901-0.684,1.841-1.406,2.472
						c-0.723,0.63-1.955-0.291-2.725-0.863c-3.353-2.489-12.141-14.193-22.46-26.546c-9.215-11.032-19.799-30.711-24.456-22.532
						c0,0-0.112,8.266,5.993,20.195c9.848,19.244,32.162,40.723,51.274,46.362C174.856,345.13,176.089,342.371,180.195,340.115z"/>
					
						<use xlink:href="#XMLID_4_"  style="overflow:visible;fill:none;stroke:#263238;stroke-linecap:round;stroke-linejoin:round;"/>
				</g>
				<path style="fill:#263238;" d="M94.005,196.475c-1.819,5.11-2.011,8.782-0.641,14.03c-1.871,7.917,1.02,11.021,3.466,11.283
					c-0.437,1.146-0.754,2.911-0.847,4.134c-0.093,1.223,0.209,2.533,1.08,3.398c0.87,0.865,2.378,1.126,3.348,0.375
					c-0.135,1.194-0.227,2.599-0.013,3.781c0.214,1.182,0.83,2.349,1.874,2.943c1.044,0.594,2.542,0.441,3.249-0.53
					c-2.334,5.192,3.173,7.419,3.638,6.925c-0.537,0.043-0.995-0.533-1.17-1.126c-1.069-3.63,1.352-5.116,1.278-8.625
					c-0.101-4.775-4.371-3.857-4.164-2.823c0.156-0.546,1.031-10.124-3.497-9.286c-0.761,0.141,2.75-7.498-1.663-8.597
					c-0.777-0.193-1.771,0.439-1.547,1.208c6.881-34.587,25.663-27.501,25.663-27.501
					C118.311,179.842,100.037,179.529,94.005,196.475z"/>
			</g>
			<circle style="fill:#999999;stroke:#263238;stroke-miterlimit:10;" cx="87.784" cy="230.446" r="2.549"/>
			<g>
				<path style="fill:none;stroke:#263238;stroke-linecap:round;stroke-linejoin:round;" d="M107.137,251
					c8.669,3.039,14.023,6.746,20.137,13.603"/>
				<g>
					<g>
						<g>
							<path style="fill:#92E3A9;stroke:#263238;stroke-linecap:round;stroke-linejoin:round;" d="M170.169,313.717
								c-1.206,4.27-1.485,8.798-0.815,13.184"/>
							<path style="fill:none;stroke:#263238;stroke-linecap:round;stroke-linejoin:round;" d="M171.495,322.334
								c-0.246,3.461,0.511,6.987,2.155,10.042"/>
							<path style="fill:none;stroke:#263238;stroke-linecap:round;stroke-linejoin:round;" d="M86.008,312.305
								c6.455,10.627,11.245,22.263,14.142,34.355"/>
							<path style="fill:none;stroke:#263238;stroke-linecap:round;stroke-linejoin:round;" d="M124.993,313.304
								c-3.115-1.555-6.118-3.333-8.984-5.308"/>
							<path style="fill:none;stroke:#263238;stroke-linecap:round;stroke-linejoin:round;" d="M92.263,281.533
								c4.713,8.775,11.21,16.574,18.937,22.857"/>
							
								<line style="fill:none;stroke:#263238;stroke-linecap:round;stroke-linejoin:round;" x1="145.967" y1="341.717" x2="152.337" y2="397.558"/>
							
								<line style="fill:none;stroke:#263238;stroke-linecap:round;stroke-linejoin:round;" x1="144.662" y1="330.273" x2="145.512" y2="337.724"/>
							<path style="fill:none;stroke:#263238;stroke-linecap:round;stroke-linejoin:round;" d="M74.78,333.087
								c-5.469,1.42-11.431,0.855-16.536-1.566c3.27-1.565,7.209-1.663,10.554-0.263"/>
							<path style="fill:none;stroke:#263238;stroke-linecap:round;stroke-linejoin:round;" d="M62.489,320.77
								c2.411,3.966,6.687,6.742,11.291,7.329"/>
							<path style="fill:none;stroke:#263238;stroke-linecap:round;stroke-linejoin:round;" d="M71.032,290.485
								c3.452,4.622,6.905,9.245,10.357,13.867"/>
							<path style="fill:none;stroke:#999999;stroke-linecap:round;stroke-linejoin:round;" d="M107.82,425.019
								c6.125,9.829,16.156,20.299,26.21,24.938"/>
							<path style="fill:none;stroke:#999999;stroke-linecap:round;stroke-linejoin:round;" d="M104.277,417.639
								c0.495,1.357,1.044,2.694,1.643,4.008"/>
							
								<line style="fill:none;stroke:#999999;stroke-linecap:round;stroke-linejoin:round;" x1="120.804" y1="440.829" x2="124.993" y2="456.957"/>
						</g>
						<path style="fill:none;stroke:#263238;stroke-linecap:round;stroke-linejoin:round;" d="M98.314,320.772
							c8.968,16.853,22.201,31.439,38.184,41.89"/>
						<path style="fill:none;stroke:#263238;stroke-linecap:round;stroke-linejoin:round;" d="M92.84,308.854
							c0.936,2.403,1.957,4.772,3.057,7.103"/>
						<path style="fill:#92E3A9;stroke:#263238;stroke-linecap:round;stroke-linejoin:round;" d="M141.314,297.701
							c1.974-2.364,3.948-4.728,5.922-7.092"/>
					</g>
					<path style="fill:#92E3A9;stroke:#263238;stroke-linecap:round;stroke-linejoin:round;" d="M133.895,297.956
						c4.397-1.41,8.217-4.541,10.463-8.575"/>
				</g>
			</g>
		</g>
	</g>
</g>
</svg>
